<svg xmlns="http://www.w3.org/2000/svg" width="800" height="620" viewBox="0 0 800 620" role="img" aria-label="celebration-cake dessert illustration">
<defs><linearGradient id="bg" x1="0" y1="0" x2="1" y2="1"><stop stop-color="#26142f"/><stop offset="1" stop-color="#09070f"/></linearGradient><linearGradient id="g1" x1="0" y1="0" x2="1" y2="1"><stop stop-color="#d2a7db"/><stop offset=".46" stop-color="#6f4b7c"/><stop offset="1" stop-color="#26142f"/></linearGradient><radialGradient id="g2"><stop stop-color="#fff1f7"/><stop offset="1" stop-color="#d2a7db"/></radialGradient><filter id="blur"><feGaussianBlur stdDeviation="32"/></filter></defs>
<rect width="800" height="620" rx="48" fill="url(#bg)"/><circle cx="620" cy="110" r="120" fill="#d2a7db" opacity=".12" filter="url(#blur)"/><circle cx="160" cy="500" r="150" fill="#6f4b7c" opacity=".1" filter="url(#blur)"/><circle cx="251" cy="155" r="2" fill="#fff1f7" opacity="0.18"/><circle cx="388" cy="108" r="3" fill="#fff1f7" opacity="0.26"/><circle cx="525" cy="191" r="4" fill="#fff1f7" opacity="0.33999999999999997"/><circle cx="662" cy="144" r="2" fill="#fff1f7" opacity="0.42"/><circle cx="179" cy="97" r="3" fill="#fff1f7" opacity="0.5"/><circle cx="316" cy="180" r="4" fill="#fff1f7" opacity="0.5800000000000001"/>
<ellipse cx="400" cy="494" rx="212" ry="52" fill="#09070d" opacity=".3"/>
        <path d="M218 270h364v182c0 62-364 62-364 0z" fill="url(#g1)"/>
        <ellipse cx="400" cy="270" rx="182" ry="66" fill="#fff1f7"/>
        <ellipse cx="400" cy="286" rx="160" ry="46" fill="#d2a7db" opacity=".72"/>
        <path d="M240 337c66 38 252 38 320 0" fill="none" stroke="#fff1f7" stroke-opacity=".5" stroke-width="8"/>
        <g fill="#fff1f7"><path d="M321 231l7 15 16 2-12 11 3 16-14-8-14 8 3-16-12-11 16-2z"/><path d="M462 211l9 19 21 3-15 14 4 21-19-10-19 10 4-21-15-14 21-3z"/><circle cx="408" cy="221" r="11"/></g>
<path d="M90 548h620" stroke="#fff1f7" stroke-opacity=".09"/>
</svg>