<svg xmlns="http://www.w3.org/2000/svg" width="800" height="620" viewBox="0 0 800 620" role="img" aria-label="moonberry-tart dessert illustration">
<defs><linearGradient id="bg" x1="0" y1="0" x2="1" y2="1"><stop stop-color="#321442"/><stop offset="1" stop-color="#09070f"/></linearGradient><linearGradient id="g1" x1="0" y1="0" x2="1" y2="1"><stop stop-color="#d9a6f1"/><stop offset=".46" stop-color="#8f4fb4"/><stop offset="1" stop-color="#321442"/></linearGradient><radialGradient id="g2"><stop stop-color="#f7eaff"/><stop offset="1" stop-color="#d9a6f1"/></radialGradient><filter id="blur"><feGaussianBlur stdDeviation="32"/></filter></defs>
<rect width="800" height="620" rx="48" fill="url(#bg)"/><circle cx="620" cy="110" r="120" fill="#d9a6f1" opacity=".12" filter="url(#blur)"/><circle cx="160" cy="500" r="150" fill="#8f4fb4" opacity=".1" filter="url(#blur)"/><circle cx="90" cy="72" r="2" fill="#f7eaff" opacity="0.18"/><circle cx="227" cy="155" r="3" fill="#f7eaff" opacity="0.26"/><circle cx="364" cy="108" r="4" fill="#f7eaff" opacity="0.33999999999999997"/><circle cx="501" cy="191" r="2" fill="#f7eaff" opacity="0.42"/><circle cx="638" cy="144" r="3" fill="#f7eaff" opacity="0.5"/><circle cx="155" cy="97" r="4" fill="#f7eaff" opacity="0.5800000000000001"/>
<ellipse cx="400" cy="500" rx="190" ry="44" fill="#08060a" opacity=".32"/>
            <path d="M232 405c0-105 76-186 168-186s168 81 168 186c0 68-336 68-336 0z" fill="url(#g1)"/>
            <ellipse cx="400" cy="398" rx="168" ry="68" fill="#8f4fb4" opacity=".92"/>
            <ellipse cx="400" cy="382" rx="145" ry="49" fill="url(#g2)"/>
            <circle cx="400" cy="270" r="31" fill="#d9a6f1"/><path d="M400 244c18-26 42-21 52-9-18 4-31 15-38 32" fill="#8f4fb4"/>
<path d="M90 548h620" stroke="#f7eaff" stroke-opacity=".09"/>
</svg>