<svg xmlns="http://www.w3.org/2000/svg" width="800" height="620" viewBox="0 0 800 620" role="img" aria-label="cocoa-nocturne dessert illustration">
<defs><linearGradient id="bg" x1="0" y1="0" x2="1" y2="1"><stop stop-color="#170d0b"/><stop offset="1" stop-color="#09070f"/></linearGradient><linearGradient id="g1" x1="0" y1="0" x2="1" y2="1"><stop stop-color="#7e4b38"/><stop offset=".46" stop-color="#3e221c"/><stop offset="1" stop-color="#170d0b"/></linearGradient><radialGradient id="g2"><stop stop-color="#d6a581"/><stop offset="1" stop-color="#7e4b38"/></radialGradient><filter id="blur"><feGaussianBlur stdDeviation="32"/></filter></defs>
<rect width="800" height="620" rx="48" fill="url(#bg)"/><circle cx="620" cy="110" r="120" fill="#7e4b38" opacity=".12" filter="url(#blur)"/><circle cx="160" cy="500" r="150" fill="#3e221c" opacity=".1" filter="url(#blur)"/><circle cx="445" cy="157" r="2" fill="#d6a581" opacity="0.18"/><circle cx="582" cy="110" r="3" fill="#d6a581" opacity="0.26"/><circle cx="99" cy="193" r="4" fill="#d6a581" opacity="0.33999999999999997"/><circle cx="236" cy="146" r="2" fill="#d6a581" opacity="0.42"/><circle cx="373" cy="99" r="3" fill="#d6a581" opacity="0.5"/><circle cx="510" cy="182" r="4" fill="#d6a581" opacity="0.5800000000000001"/>
<ellipse cx="400" cy="501" rx="188" ry="42" fill="#08060a" opacity=".3"/>
            <rect x="245" y="264" width="310" height="224" rx="118" fill="url(#g1)"/>
            <path d="M266 363c75 26 193 26 268 0" stroke="#d6a581" stroke-width="12" opacity=".42"/>
            <ellipse cx="400" cy="274" rx="112" ry="48" fill="url(#g2)"/>
            <path d="M400 210c17 22 31 41 31 60a31 31 0 1 1-62 0c0-19 14-38 31-60z" fill="#7e4b38"/>
<path d="M90 548h620" stroke="#d6a581" stroke-opacity=".09"/>
</svg>