<svg xmlns="http://www.w3.org/2000/svg" width="800" height="620" viewBox="0 0 800 620" role="img" aria-label="matcha-mist dessert illustration">
<defs><linearGradient id="bg" x1="0" y1="0" x2="1" y2="1"><stop stop-color="#233327"/><stop offset="1" stop-color="#09070f"/></linearGradient><linearGradient id="g1" x1="0" y1="0" x2="1" y2="1"><stop stop-color="#a9c59b"/><stop offset=".46" stop-color="#6e8b62"/><stop offset="1" stop-color="#233327"/></linearGradient><radialGradient id="g2"><stop stop-color="#e6efdc"/><stop offset="1" stop-color="#a9c59b"/></radialGradient><filter id="blur"><feGaussianBlur stdDeviation="32"/></filter></defs>
<rect width="800" height="620" rx="48" fill="url(#bg)"/><circle cx="620" cy="110" r="120" fill="#a9c59b" opacity=".12" filter="url(#blur)"/><circle cx="160" cy="500" r="150" fill="#6e8b62" opacity=".1" filter="url(#blur)"/><circle cx="658" cy="156" r="2" fill="#e6efdc" opacity="0.18"/><circle cx="175" cy="109" r="3" fill="#e6efdc" opacity="0.26"/><circle cx="312" cy="192" r="4" fill="#e6efdc" opacity="0.33999999999999997"/><circle cx="449" cy="145" r="2" fill="#e6efdc" opacity="0.42"/><circle cx="586" cy="98" r="3" fill="#e6efdc" opacity="0.5"/><circle cx="103" cy="181" r="4" fill="#e6efdc" opacity="0.5800000000000001"/>
<ellipse cx="400" cy="500" rx="190" ry="44" fill="#08060a" opacity=".32"/>
            <path d="M232 405c0-105 76-186 168-186s168 81 168 186c0 68-336 68-336 0z" fill="url(#g1)"/>
            <ellipse cx="400" cy="398" rx="168" ry="68" fill="#6e8b62" opacity=".92"/>
            <ellipse cx="400" cy="382" rx="145" ry="49" fill="url(#g2)"/>
            <circle cx="400" cy="270" r="31" fill="#a9c59b"/><path d="M400 244c18-26 42-21 52-9-18 4-31 15-38 32" fill="#6e8b62"/>
<path d="M90 548h620" stroke="#e6efdc" stroke-opacity=".09"/>
</svg>