<svg xmlns="http://www.w3.org/2000/svg" width="800" height="620" viewBox="0 0 800 620" role="img" aria-label="ruby-opera dessert illustration">
<defs><linearGradient id="bg" x1="0" y1="0" x2="1" y2="1"><stop stop-color="#46131f"/><stop offset="1" stop-color="#09070f"/></linearGradient><linearGradient id="g1" x1="0" y1="0" x2="1" y2="1"><stop stop-color="#e76f91"/><stop offset=".46" stop-color="#b62b55"/><stop offset="1" stop-color="#46131f"/></linearGradient><radialGradient id="g2"><stop stop-color="#ffd7e2"/><stop offset="1" stop-color="#e76f91"/></radialGradient><filter id="blur"><feGaussianBlur stdDeviation="32"/></filter></defs>
<rect width="800" height="620" rx="48" fill="url(#bg)"/><circle cx="620" cy="110" r="120" fill="#e76f91" opacity=".12" filter="url(#blur)"/><circle cx="160" cy="500" r="150" fill="#b62b55" opacity=".1" filter="url(#blur)"/><circle cx="109" cy="199" r="2" fill="#ffd7e2" opacity="0.18"/><circle cx="246" cy="152" r="3" fill="#ffd7e2" opacity="0.26"/><circle cx="383" cy="105" r="4" fill="#ffd7e2" opacity="0.33999999999999997"/><circle cx="520" cy="188" r="2" fill="#ffd7e2" opacity="0.42"/><circle cx="657" cy="141" r="3" fill="#ffd7e2" opacity="0.5"/><circle cx="174" cy="94" r="4" fill="#ffd7e2" opacity="0.5800000000000001"/>
<ellipse cx="400" cy="501" rx="188" ry="42" fill="#08060a" opacity=".3"/>
            <rect x="245" y="264" width="310" height="224" rx="118" fill="url(#g1)"/>
            <path d="M266 363c75 26 193 26 268 0" stroke="#ffd7e2" stroke-width="12" opacity=".42"/>
            <ellipse cx="400" cy="274" rx="112" ry="48" fill="url(#g2)"/>
            <path d="M400 210c17 22 31 41 31 60a31 31 0 1 1-62 0c0-19 14-38 31-60z" fill="#e76f91"/>
<path d="M90 548h620" stroke="#ffd7e2" stroke-opacity=".09"/>
</svg>