<svg xmlns="http://www.w3.org/2000/svg" width="800" height="620" viewBox="0 0 800 620" role="img" aria-label="vanilla-comet dessert illustration">
<defs><linearGradient id="bg" x1="0" y1="0" x2="1" y2="1"><stop stop-color="#5a4020"/><stop offset="1" stop-color="#09070f"/></linearGradient><linearGradient id="g1" x1="0" y1="0" x2="1" y2="1"><stop stop-color="#f3ddb0"/><stop offset=".46" stop-color="#d4a95d"/><stop offset="1" stop-color="#5a4020"/></linearGradient><radialGradient id="g2"><stop stop-color="#fffaf0"/><stop offset="1" stop-color="#f3ddb0"/></radialGradient><filter id="blur"><feGaussianBlur stdDeviation="32"/></filter></defs>
<rect width="800" height="620" rx="48" fill="url(#bg)"/><circle cx="620" cy="110" r="120" fill="#f3ddb0" opacity=".12" filter="url(#blur)"/><circle cx="160" cy="500" r="150" fill="#d4a95d" opacity=".1" filter="url(#blur)"/><circle cx="516" cy="200" r="2" fill="#fffaf0" opacity="0.18"/><circle cx="653" cy="153" r="3" fill="#fffaf0" opacity="0.26"/><circle cx="170" cy="106" r="4" fill="#fffaf0" opacity="0.33999999999999997"/><circle cx="307" cy="189" r="2" fill="#fffaf0" opacity="0.42"/><circle cx="444" cy="142" r="3" fill="#fffaf0" opacity="0.5"/><circle cx="581" cy="95" r="4" fill="#fffaf0" opacity="0.5800000000000001"/>
<ellipse cx="400" cy="500" rx="195" ry="42" fill="#08060a" opacity=".32"/>
            <path d="M246 454l38-217h232l38 217z" fill="url(#g1)"/>
            <path d="M284 237h232l-18 57H302z" fill="#f3ddb0" opacity=".8"/>
            <path d="M312 328h176" stroke="#fffaf0" stroke-width="10" opacity=".55"/>
            <path d="M335 205c40-46 91-46 131 0" fill="none" stroke="#f3ddb0" stroke-width="18" stroke-linecap="round"/>
<path d="M90 548h620" stroke="#fffaf0" stroke-opacity=".09"/>
</svg>